<svg xmlns="http://www.w3.org/2000/svg" width="24" height="24" viewBox="0 0 24 24" fill="none" stroke="currentColor" stroke-width="1.8" stroke-linecap="round" stroke-linejoin="round" role="img" aria-label="AI draft">
  <title>AI draft</title>
  <path d="M5.5 4.5h9A3.5 3.5 0 0 1 18 8v4a3.5 3.5 0 0 1-3.5 3.5H10L5 19v-3.7A3.5 3.5 0 0 1 2.5 12V8A3.5 3.5 0 0 1 5.5 4.5Z"/>
  <path d="M7.3 9.5h6.2"/>
  <path d="M7.3 12.4h3.8"/>
  <path d="m15.2 19.3 4.6-4.6a1.4 1.4 0 0 1 2 2l-4.6 4.6-2.7.7.7-2.7Z"/>
</svg>
