<svg xmlns="http://www.w3.org/2000/svg" width="24" height="24" viewBox="0 0 24 24" fill="none" stroke="currentColor" stroke-width="1.8" stroke-linecap="round" stroke-linejoin="round" role="img" aria-label="Follow-ups">
  <title>Follow-ups</title>
  <path d="M18.8 8.5A7.5 7.5 0 0 0 5.2 7"/>
  <path d="M18.8 4.8v3.7h-3.7"/>
  <path d="M5.2 15.5A7.5 7.5 0 0 0 18.8 17"/>
  <path d="M5.2 19.2v-3.7h3.7"/>
  <path d="M8.5 8.6h6.2a2.2 2.2 0 0 1 2.2 2.2v2a2.2 2.2 0 0 1-2.2 2.2h-2.6L9 17v-2H8.5a2.2 2.2 0 0 1-2.2-2.2v-2a2.2 2.2 0 0 1 2.2-2.2Z"/>
</svg>
