<svg xmlns="http://www.w3.org/2000/svg" width="24" height="24" viewBox="0 0 24 24" fill="none" stroke="currentColor" stroke-width="1.8" stroke-linecap="round" stroke-linejoin="round" role="img" aria-label="Inbox">
  <title>Inbox</title>
  <path d="M4 13.5h4.1l1.4 2h5l1.4-2H20"/>
  <path d="M5.5 6.5h13l2 7v4A2.5 2.5 0 0 1 18 20H6a2.5 2.5 0 0 1-2.5-2.5v-4l2-7Z"/>
  <path d="M8.5 4h7A2.5 2.5 0 0 1 18 6.5v3A2.5 2.5 0 0 1 15.5 12h-2.4L10 14v-2H8.5A2.5 2.5 0 0 1 6 9.5v-3A2.5 2.5 0 0 1 8.5 4Z"/>
  <path d="M9.5 8h.01"/>
  <path d="M12 8h.01"/>
  <path d="M14.5 8h.01"/>
</svg>
